# xmcd CD database file
#
# Track frame offsets:
#	150
#	15615
#	24815
#	32074
#	46585
#	60499
#	74819
#	88221
#	104871
#	118977
#	133412
#	146710
#	160999
#	174768
#
# Disc length: 2515 seconds
#
# Revision: 0
# Processed by: cddbd v1.5.1PL0 Copyright (c) Steve Scherf et al.
# Submitted via: CDex 1.51
#
DISCID=c809d10e
DTITLE=Marlene Dietrich - Cocktail Hour- Marlene Dietrich [CD1]
DYEAR=1900
DGENRE=Jazz
TTITLE0=Lili Marlene
TTITLE1=The Boys In The Backroom
TTITLE2=Lola
TTITLE3=Blonde Women
TTITLE4=Leben Ohne Liebe Kannst Du Nicht
TTITLE5=Quand L'Amour Meurt
TTITLE6=Johnny
TTITLE7=Allein In Einer Grossen Stadt
TTITLE8=Wo Ist Der Mann
TTITLE9=You Do Something To Me
TTITLE10=Falling In Love Again
TTITLE11=Moi Je M'Ennuie
TTITLE12=Symphonie
TTITLE13=You Go To My Head
EXTD=
EXTT0=
EXTT1=
EXTT2=
EXTT3=
EXTT4=
EXTT5=
EXTT6=
EXTT7=
EXTT8=
EXTT9=
EXTT10=
EXTT11=
EXTT12=
EXTT13=
PLAYORDER=
